<svg xmlns="http://www.w3.org/2000/svg" xmlns:xlink="http://www.w3.org/1999/xlink" xmlns:fi="http://pattern.flaticon.com/" x="0" y="0" width="800" height="400" viewBox="0 0 2800 1400"><rect x="0px" y="0px" width="100%" height="100%" opacity="1" fill="#f8f8f8"/><defs><g transform="matrix(0.08064515888690948 0 0 0.08064515888690948 67.5 67.5)" id="L1_85"><path d="M305.536,368H256v-16h-48v16h-48v32h-48c-35.288,0-64-28.712-64-64c0-35.288,28.712-64,64-64h272     c61.76,0,112-50.24,112-112S445.76,48,384,48H256v-8c0-13.232-10.768-24-24-24H128V0H0v144h128v-16h104c13.232,0,24-10.768,24-24     v-8h128c35.288,0,64,28.712,64,64c0,35.288-28.712,64-64,64H112C50.24,224,0,274.24,0,336s50.24,112,112,112h48v32h48v16h48v-16     h49.536l40-16H496v-80H345.536L305.536,368z M112,128H16V16h96V128z M240,104c0,4.416-3.584,8-8,8H128V32h104     c4.416,0,8,3.584,8,8V104z M160,432h-48c-52.936,0-96-43.064-96-96c0-52.936,43.064-96,96-96h272c44.112,0,80-35.888,80-80     s-35.888-80-80-80H256V64h128c52.936,0,96,43.064,96,96c0,52.936-43.064,96-96,96H112c-44.112,0-80,35.888-80,80s35.888,80,80,80     h48V432z M208,464h-32v-80h32V464z M240,480h-16v-16h16V480z M240,448h-16v-16h16V448z M240,416h-16v-16h16V416z M240,384h-16     v-16h16V384z M336,450.584l-24,9.6V448h-16v16h-40v-80h40v48h16v-44.184l24,9.6V450.584z M464,400h16v48h-16V400z M400,400h48v48     h-48V400z M352,400h32v48h-32V400z"/><rect x="32px" y="96px" width="64px" height="16px"/><rect x="32px" y="32px" width="64px" height="16px"/><rect x="32px" y="64px" width="64px" height="16px"/></g><g transform="matrix(0.08196721225976944 0 0 0.08196721225976944 242.5 67.5)" id="L1_86"><path d="M188,128h-2.84C201.504,114.792,212,94.608,212,72c0-39.704-32.296-72-72-72S68,32.296,68,72     c0,22.608,10.496,42.792,26.84,56H92c-22.056,0-40,17.944-40,40v88h48v20.936l-24.992,3.128l1.984,15.872L100,293.064v15.88     l-24.992,3.128l1.984,15.872l23.008-2.88v15.88l-24.992,3.128l1.984,15.872l23.008-2.88v17.056C85.392,385.864,76,403.84,76,424     c0,35.288,28.712,64,64,64s64-28.712,64-64c0-20.16-9.392-38.144-24-49.88v-27.056l24.992-3.128l-1.984-15.872L180,330.936     v-15.88l24.992-3.128l-1.984-15.872L180,298.936v-15.88l24.992-3.128l-1.984-15.872L180,266.936V256h48v-88     C228,145.944,210.056,128,188,128z M84,72c0-30.872,25.128-56,56-56s56,25.128,56,56s-25.128,56-56,56S84,102.872,84,72z      M188,424c0,26.472-21.528,48-48,48s-48-21.528-48-48s21.528-48,48-48S188,397.528,188,424z M164,285.056v15.88l-48,6v-15.88     L164,285.056z M116,274.936V256h48v12.936L116,274.936z M164,317.056v15.88l-48,6v-15.88L164,317.056z M164,349.064v15.648     c-7.416-3.016-15.512-4.712-24-4.712c-8.488,0-16.584,1.696-24,4.712v-9.648L164,349.064z M212,208h-16v16h16v16H68v-16h112v-16     H68v-40c0-13.232,10.768-24,24-24h96c13.232,0,24,10.768,24,24V208z"/><path d="M140,112c8.424,0,16.48-2.584,23.304-7.488l-9.328-13C149.888,94.448,145.056,96,140,96c-13.232,0-24-10.768-24-24     s10.768-24,24-24s24,10.768,24,24c0,4.208-1.104,8.344-3.184,11.952l13.856,8C178.16,85.912,180,79.016,180,72     c0-22.056-17.944-40-40-40c-22.056,0-40,17.944-40,40C100,94.056,117.944,112,140,112z"/><path d="M140,392c-17.648,0-32,14.352-32,32s14.352,32,32,32s32-14.352,32-32S157.648,392,140,392z M140,440     c-8.824,0-16-7.176-16-16c0-8.824,7.176-16,16-16c8.824,0,16,7.176,16,16C156,432.824,148.824,440,140,440z"/><path d="M436,256v-88c0-22.056-17.944-40-40-40h-2.84C409.504,114.792,420,94.608,420,72c0-39.704-32.296-72-72-72     c-39.704,0-72,32.296-72,72c0,22.608,10.496,42.792,26.84,56H300c-22.056,0-40,17.944-40,40v88h48v20.936l-24.992,3.128     l1.984,15.872L308,293.064v15.88l-24.992,3.128l1.984,15.872l23.008-2.88v15.88l-24.992,3.128l1.984,15.872l23.008-2.88v17.056     c-14.608,11.744-24,29.72-24,49.88c0,35.288,28.712,64,64,64c35.288,0,64-28.712,64-64c0-20.16-9.392-38.144-24-49.88v-27.056     l24.992-3.128l-1.984-15.872L388,330.936v-15.88l24.992-3.128l-1.984-15.872L388,298.936v-15.88l24.992-3.128l-1.984-15.872     L388,266.936V256H436z M292,72c0-30.872,25.128-56,56-56s56,25.128,56,56s-25.128,56-56,56S292,102.872,292,72z M396,424     c0,26.472-21.528,48-48,48s-48-21.528-48-48s21.528-48,48-48S396,397.528,396,424z M372,285.056v15.88l-48,6v-15.88L372,285.056z      M324,274.936V256h48v12.936L324,274.936z M372,317.056v15.88l-48,6v-15.88L372,317.056z M372,349.064v15.648     c-7.416-3.016-15.512-4.712-24-4.712c-8.488,0-16.584,1.696-24,4.712v-9.648L372,349.064z M276,240v-16h112v-16H276v-40     c0-13.232,10.768-24,24-24h96c13.232,0,24,10.768,24,24v40h-16v16h16v16H276z"/><path d="M348,112c22.056,0,40-17.944,40-40c0-22.056-17.944-40-40-40c-22.056,0-40,17.944-40,40C308,94.056,325.944,112,348,112z      M348,48c13.232,0,24,10.768,24,24s-10.768,24-24,24s-24-10.768-24-24S334.768,48,348,48z"/><path d="M348,392c-17.648,0-32,14.352-32,32s14.352,32,32,32c6.048,0,11.936-1.696,17.032-4.904l-8.528-13.528     C353.968,439.16,351.024,440,348,440c-8.824,0-16-7.176-16-16c0-8.824,7.176-16,16-16c8.824,0,16,7.176,16,16     c0,2.056-0.384,4.056-1.144,5.944l14.856,5.936c1.52-3.784,2.288-7.784,2.288-11.88C380,406.352,365.648,392,348,392z"/></g><path d="M372.416,163.208c11.528-2.944,19.584-13.304,19.584-25.2C392,123.664,380.336,112,365.36,112    c-2.168,0-4.336,0.272-6.432,0.808l-6.928,1.76v-26.16l20.416-5.2C383.944,80.264,392,69.904,392,58.008    C392,43.664,380.336,32,365.36,32c-2.168,0-4.336,0.272-6.432,0.808L352,34.568V0H144v87.592l-20.416,5.2    C112.056,95.736,104,106.096,104,117.992C104,132.336,115.664,144,130.584,144c2.168,0,4.328-0.272,6.424-0.808l6.992-1.776    v26.176l-20.416,5.2c-11.528,2.944-19.584,13.304-19.584,25.2C104,212.336,115.664,224,130.584,224    c2.168,0,4.328-0.272,6.424-0.808l6.992-1.776v26.176l-20.416,5.2c-11.528,2.936-19.584,13.304-19.584,25.2    C104,292.336,115.664,304,130.584,304c2.16,0,4.304-0.264,6.424-0.808l6.992-1.776v26.176l-20.416,5.208    C112.056,335.736,104,346.096,104,357.992C104,372.336,115.664,384,130.584,384c2.16,0,4.304-0.264,6.424-0.808l6.992-1.776    v26.176l-20.416,5.208C112.056,415.736,104,426.096,104,437.992C104,452.336,115.664,464,130.584,464    c2.16,0,4.304-0.264,6.424-0.808l6.992-1.776V496h208v-87.592l20.416-5.2c11.528-2.944,19.584-13.304,19.584-25.2    C392,363.664,380.336,352,365.36,352c-2.16,0-4.312,0.264-6.432,0.808l-6.928,1.76V328.4l20.416-5.2    C383.944,320.264,392,309.904,392,298.008C392,283.664,380.336,272,365.36,272c-2.16,0-4.312,0.264-6.416,0.8L352,274.568v-26.16    l20.416-5.2c11.528-2.944,19.584-13.304,19.584-25.2C392,203.664,380.336,192,365.36,192c-2.168,0-4.336,0.272-6.432,0.808    l-6.928,1.76v-26.16L372.416,163.208z M160,16h176v22.648L160,83.512V16z M133.056,127.688c-0.808,0.208-1.64,0.312-3.048,0.312    c-5.512,0-10.008-4.488-10.008-10.008c0-4.576,3.104-8.568,7.536-9.696L362.88,48.312c0.808-0.208,1.64-0.312,3.112-0.312    C371.504,48,376,52.488,376,58.008c0,4.576-3.104,8.568-7.536,9.696L133.056,127.688z M336,480H160v-22.664l176-44.856V480z     M362.864,368.312c0.816-0.208,1.656-0.312,3.128-0.312c5.512,0,10.008,4.496,10.008,10.008c0,4.576-3.104,8.56-7.536,9.696    l-235.392,59.984c-0.816,0.208-1.648,0.312-3.064,0.312c-5.512,0-10.008-4.496-10.008-10.008c0-4.576,3.104-8.56,7.536-9.696    l50.44-12.856l-3.952-15.504L160,403.512v-26.176l176-44.856v26.168l-145.976,37.208l3.952,15.504L362.864,368.312z     M362.88,288.304c0.816-0.2,1.648-0.304,3.112-0.304c5.512,0,10.008,4.496,10.008,10.008c0,4.576-3.104,8.56-7.536,9.696    l-235.392,59.984c-0.816,0.208-1.648,0.312-3.064,0.312c-5.512,0-10.008-4.496-10.008-10.008c0-4.576,3.104-8.56,7.536-9.696    L362.88,288.304z M160,323.512v-26.176l176-44.848v26.16L160,323.512z M362.88,208.312c0.808-0.208,1.64-0.312,3.112-0.312    c5.512,0,10.008,4.488,10.008,10.008c0,4.576-3.104,8.568-7.536,9.696l-235.392,59.984c-0.816,0.208-1.648,0.312-3.064,0.312    c-5.512,0-10.008-4.496-10.008-10.008c0-4.576,3.104-8.56,7.536-9.696L362.88,208.312z M160,243.512v-26.176l176-44.848v26.16    L160,243.512z M133.056,207.688c-0.808,0.208-1.64,0.312-3.048,0.312c-5.512,0-10.008-4.488-10.008-10.008    c0-4.576,3.104-8.568,7.536-9.696l178.44-45.48l-3.952-15.504L160,163.512v-26.176l176-44.848v26.16l-17.976,4.584l3.952,15.504    l40.904-10.432c0.808-0.2,1.64-0.304,3.112-0.304c5.512,0,10.008,4.488,10.008,10.008c0,4.576-3.104,8.568-7.536,9.696    L133.056,207.688z" transform="matrix(0.1411290317773819 0 0 0.1411290317773819 315 140)" id="L1_87"/><g transform="matrix(0.1363201766329438 -0.03652688124086529 0.03652688124086529 0.1363201766329438 132.13392952808607 150.25126262355525)" id="L1_88"><path d="M248,0C111.248,0,0,111.248,0,248s111.248,248,248,248s248-111.248,248-248S384.752,0,248,0z M248,480     C120.08,480,16,375.92,16,248S120.08,16,248,16s232,104.08,232,232S375.92,480,248,480z"/><path d="M248,32C128.896,32,32,128.896,32,248s96.896,216,216,216c50.352,0,99.376-17.704,138.032-49.848L375.8,401.856     C340.008,431.608,294.624,448,248,448c-110.28,0-200-89.72-200-200S137.72,48,248,48s200,89.72,200,200     c0,54.976-21.848,106.232-61.536,144.32l11.08,11.544C440.4,362.736,464,307.376,464,248C464,128.896,367.104,32,248,32z"/><path d="M96,248c0,83.816,68.184,152,152,152s152-68.184,152-152S331.816,96,248,96S96,164.184,96,248z M129.472,181.528     l12.104,5.672l-15.416,47.44l-13.152-2.528C115.144,213.904,120.864,196.816,129.472,181.528z M191.208,371.416     c-16.352-7.56-30.912-18.24-42.984-31.312l9.064-9.68l40.352,29.32L191.208,371.416z M304.792,371.408l-6.432-11.672     l40.352-29.32l9.064,9.68C335.704,353.176,321.144,363.856,304.792,371.408z M382.992,232.104l-13.152,2.528l-15.416-47.44     l12.104-5.672C375.136,196.816,380.856,213.904,382.992,232.104z M248,112c9.104,0,18,0.936,26.608,2.648L272.936,128h-49.872     l-1.672-13.352C230,112.936,238.896,112,248,112z M205.784,118.792L208.936,144h78.128l3.152-25.208     c27.368,8.968,50.848,26.408,67.512,49.192l-22.88,10.728l24.136,74.296l25.016-4.8c-0.048,29.672-9.744,57.064-25.976,79.424     l-17.288-18.456l-63.192,45.928l12.272,22.256C276.624,381.632,262.592,384,248,384c-14.592,0-28.624-2.368-41.808-6.64     l12.272-22.256l-63.192-45.928l-17.288,18.456c-16.232-22.36-25.928-49.752-25.976-79.424l25.016,4.8l24.136-74.296     l-22.88-10.728C154.936,145.2,178.424,127.752,205.784,118.792z"/><path d="M248,320c39.704,0,72-32.296,72-72c0-39.704-32.296-72-72-72c-39.704,0-72,32.296-72,72S208.296,320,248,320z M248,192     c30.872,0,56,25.128,56,56s-25.128,56-56,56s-56-25.128-56-56S217.128,192,248,192z"/><path d="M248,288c22.056,0,40-17.944,40-40c0-22.056-17.944-40-40-40c-22.056,0-40,17.944-40,40C208,270.056,225.944,288,248,288     z M248,224c13.232,0,24,10.768,24,24s-10.768,24-24,24s-24-10.768-24-24S234.768,224,248,224z"/><rect x="224px" y="64px" width="16px" height="16px"/><rect x="256px" y="64px" width="16px" height="16px"/><rect x="192px" y="64px" width="16px" height="16px"/><rect x="288px" y="64px" width="16px" height="16px"/></g><g transform="matrix(0.10080645233392715 0 0 0.10080645233392715 62.5 237.5)" id="L1_89"><path d="M480,160.472V56c0-22.056-17.944-40-40-40H335.528C308.296,5.688,278.808,0,248,0c-30.808,0-60.296,5.688-87.528,16H56     c-22.056,0-40,17.944-40,40v104.472C5.688,187.704,0,217.192,0,248s5.688,60.296,16,87.528V440c0,22.056,17.944,40,40,40h104.472     c27.24,10.312,56.728,16,87.528,16s60.296-5.688,87.528-16H440c22.056,0,40-17.944,40-40V335.528     c10.312-27.232,16-56.72,16-87.528S490.312,187.704,480,160.472z M440,32c13.232,0,24,10.768,24,24v70.368     C441.728,86.976,409.024,54.272,369.632,32H440z M32,56c0-13.232,10.768-24,24-24h70.368C86.976,54.272,54.272,86.976,32,126.368     V56z M56,464c-13.232,0-24-10.768-24-24v-70.368c22.272,39.392,54.976,72.096,94.368,94.368H56z M464,440     c0,13.232-10.768,24-24,24h-70.368c39.392-22.272,72.104-54.976,94.368-94.368V440z M248,480C120.072,480,16,375.92,16,248     S120.072,16,248,16s232,104.08,232,232S375.928,480,248,480z"/><path d="M291.992,282.536l57.072,25.368C355.2,310.616,361.704,312,368.4,312c26.248,0,47.6-21.352,47.6-47.592V184.24     c0-17.784-14.464-32.24-32.248-32.24c-12.728,0-24.296,7.512-29.464,19.152l-9.032,20.328     c-8.384,18.856-24.608,32.968-44.136,38.912c-3.504-10.528-10.04-19.664-18.584-26.384l25.36-57.072     c2.728-6.128,4.104-12.64,4.104-19.344C312,101.352,290.648,80,264.4,80h-80.16C166.464,80,152,94.464,152,112.24     c0,12.736,7.512,24.296,19.152,29.472l20.328,9.032c18.856,8.376,32.968,24.6,38.92,44.136     c-10.528,3.504-19.664,10.04-26.384,18.592l-57.072-25.368C140.8,185.384,134.296,184,127.6,184     c-26.248,0-47.6,21.352-47.6,47.592v80.168C80,329.544,94.464,344,112.248,344c12.728,0,24.296-7.512,29.464-19.152l9.032-20.328     c8.384-18.856,24.608-32.968,44.136-38.912c3.504,10.528,10.04,19.664,18.584,26.384l-25.36,57.072     c-2.728,6.128-4.104,12.64-4.104,19.344c0,26.24,21.352,47.592,47.6,47.592h80.16c17.776,0,32.24-14.464,32.24-32.24     c0-12.736-7.512-24.296-19.152-29.472l-20.328-9.032c-18.856-8.376-32.968-24.6-38.92-44.136     C276.136,297.616,285.272,291.08,291.992,282.536z M304,248c0-0.616-0.072-1.216-0.096-1.832     c24.768-6.936,45.44-24.488,55.968-48.192l9.04-20.328c2.6-5.856,8.424-9.648,14.84-9.648c8.96,0,16.248,7.288,16.248,16.24     v80.168C400,281.832,385.824,296,368.4,296c-4.448,0-8.768-0.912-12.832-2.728l-55.544-24.688     C302.56,262.208,304,255.272,304,248z M192,248c0,0.616,0.072,1.216,0.096,1.832c-24.768,6.936-45.44,24.488-55.968,48.192     l-9.04,20.328c-2.6,5.856-8.424,9.648-14.84,9.648C103.288,328,96,320.712,96,311.76v-80.168C96,214.168,110.176,200,127.6,200     c4.448,0,8.768,0.912,12.832,2.728l55.544,24.688C193.44,233.792,192,240.728,192,248z M197.976,136.12l-20.328-9.032     c-5.864-2.6-9.648-8.432-9.648-14.848c0-8.952,7.288-16.24,16.248-16.24h80.16c17.424,0,31.6,14.168,31.6,31.592     c0,4.456-0.92,8.768-2.72,12.832L268.6,195.968C262.208,193.44,255.272,192,248,192c-0.616,0-1.216,0.072-1.832,0.096     C239.232,167.328,221.672,146.656,197.976,136.12z M298.024,359.88l20.328,9.032c5.864,2.6,9.648,8.432,9.648,14.848     c0,8.952-7.288,16.24-16.248,16.24H231.6c-17.424,0-31.6-14.168-31.6-31.592c0-4.456,0.92-8.768,2.72-12.832l24.688-55.544     C233.792,302.56,240.728,304,248,304c0.616,0,1.216-0.072,1.832-0.096C256.768,328.672,274.328,349.344,298.024,359.88z M248,288     c-22.056,0-40-17.944-40-40c0-22.056,17.944-40,40-40c22.056,0,40,17.944,40,40C288,270.056,270.056,288,248,288z"/><path d="M248,32C128.896,32,32,128.896,32,248s96.896,216,216,216c47.008,0,91.696-14.832,129.24-42.912l-9.584-12.816     C332.904,434.264,291.528,448,248,448c-110.28,0-200-89.72-200-200S137.72,48,248,48s200,89.72,200,200     c0,56.84-24.32,111.192-66.72,149.128l10.664,11.92C437.736,368.088,464,309.392,464,248C464,128.896,367.104,32,248,32z"/><rect x="48px" y="48px" width="16px" height="16px"/><rect x="432px" y="48px" width="16px" height="16px"/><rect x="48px" y="432px" width="16px" height="16px"/><rect x="432px" y="432px" width="16px" height="16px"/></g><g transform="matrix(0.18145161867141724 0 0 0.18145161867141724 217.5 217.5)" id="L1_90"><path d="M224,64h-24V0h-80v64H96v32H80v80h16v17.368c-9.312,3.304-16,12.2-16,22.632v112c0,10.432,6.688,19.328,16,22.632V400h16     v48h16v48h64v-48h16v-48h16v-49.368c9.312-3.304,16-12.2,16-22.632V216c0-10.432-6.688-19.328-16-22.632V176h16V96h-16V64z      M136,16h48v16h-48V16z M176,480h-32v-32h32V480z M192,432h-64v-32h64V432z M224,328c0,4.416-3.584,8-8,8h-8v48h-96v-48h-8     c-4.416,0-8-3.584-8-8v-24h128V328z M224,256h-16v16h16v16H96v-16h96v-16H96v-16h128V256z M224,160h-16v48h8c4.416,0,8,3.584,8,8     v8H96v-8c0-4.416,3.584-8,8-8h8v-48H96v-48h16V80h24V48h48v32h24v32h16V160z"/><path d="M128,160h64v-48h-64V160z M144,128h32v16h-32V128z"/><path d="M400,112V80h-16V0h-64v80h-16v32h-16v60.944l16,8V392c0,10.416,6.712,19.216,16,22.528V496h64v-81.472     c9.288-3.312,16-12.112,16-22.528V180.944l16-8V112H400z M336,16h32v64h-32V16z M320,96h64v16h-64V96z M368,480h-32v-64h32V480z      M384,392c0,4.416-3.584,8-8,8h-48c-4.416,0-8-3.584-8-8V288h64V392z M384,240h-16v16h16v16h-64v-16h32v-16h-32v-16h64V240z      M400,163.056l-16,8V208h-64v-36.944l-16-8V128h96V163.056z"/></g><path d="M336,209.472V176h-16V80h-16V0H192v48h64v32h-80v96h-16v33.472c-9.288,3.312-16,12.112-16,22.528s6.712,19.216,16,22.528    V264c0,10.416,6.712,19.216,16,22.528V424c0,13.232,10.768,24,24,24h16v48h64v-48h16c13.232,0,24-10.768,24-24V286.528    c9.288-3.312,16-12.112,16-22.528v-9.472c9.288-3.312,16-12.112,16-22.528S345.288,212.784,336,209.472z M208,32V16h80v64h-16V32    H208z M192,135.064l80.992-10.128l-1.984-15.872L192,118.936V96h64h48v8.936l-16.992,2.128l1.984,15.872L304,121.064v15.88    l-112,14V135.064z M192,167.064l112-14V176H192V167.064z M176,192h144v16H176V192z M176,264v-8h16v16h-8    C179.592,272,176,268.416,176,264z M264,480h-32v-32h32V480z M304,400h-80v16h80v8c0,4.416-3.592,8-8,8h-96c-4.408,0-8-3.584-8-8    v-8h16v-16h-16v-16h112V400z M304,368H192v-80h112V368z M208,272v-16h80v16H208z M320,264c0,4.416-3.592,8-8,8h-8v-16h16V264z     M328,240H168c-4.408,0-8-3.584-8-8s3.592-8,8-8h160c4.408,0,8,3.584,8,8S332.408,240,328,240z" transform="matrix(0.17526880469667763 0.04696313467684293 -0.04696313467684293 0.17526880469667763 -31.819804734407533 -55.11351953412163)" id="L1_91"/><g transform="matrix(0.08064515888690948 0 0 0.08064515888690948 155 330)" id="L1_92"><path d="M456,144H312v-32h24V48h-16V24c0-13.232-10.768-24-24-24h-32c-13.232,0-24,10.768-24,24v24h-80v64h24v32h-80v48h51.056     L176,233.888V360c0,10.416,6.712,19.216,16,22.528V408c0,13.232,10.768,24,24,24h0.936l8,64h46.128l8-64H280     c13.232,0,24-10.768,24-24v-25.472c9.288-3.312,16-12.112,16-22.528V240v-8v-9.664l136-32V144z M256,24c0-4.408,3.592-8,8-8h32     c4.408,0,8,3.592,8,8v24h-48V24z M176,96V64h144v32h-88v16h64v32h-96v-32h16V96H176z M256.936,480h-17.872l-6-48h29.88     L256.936,480z M304,360c0,4.408-3.592,8-8,8h-56v16h48v24c0,4.408-3.592,8-8,8h-64c-4.408,0-8-3.592-8-8v-24h16v-16h-24     c-4.408,0-8-3.592-8-8V240h16h80h16V360z M224,224v-16h48v16H224z M392,188.96l-88,20.704V224h-16v-32h-80v32h-19.056l-24-48H120     v-16h272V188.96z M440,177.664l-32,7.528V160h32V177.664z"/><path d="M96,224H72v-32H56v32H32v48H0v64h16v8c0,10.416,6.712,19.216,16,22.528v99.896L51.72,496h24.56L96,466.424v-99.896     c9.288-3.312,16-12.112,16-22.528v-8h16v-64H96V224z M48,240h32v32H48V240z M80,461.576L67.72,480h-7.44L48,461.576V368h32     V461.576z M112,288v32H64v16h32v8c0,4.408-3.592,8-8,8H40c-4.408,0-8-3.592-8-8v-8h16v-16H16v-32H112z"/><path d="M464,304v-48h-24v-32h-16v32h-24v48h-32v64h16v8c0,10.416,6.712,19.216,16,22.528v59.36L419.056,496h25.888L464,457.888     v-59.36c9.288-3.312,16-12.112,16-22.528v-8h16v-64H464z M416,272h32v32h-32V272z M448,454.112L435.056,480h-6.112L416,454.112     V400h32V454.112z M480,352h-48v16h32v8c0,4.408-3.592,8-8,8h-48c-4.408,0-8-3.592-8-8v-8h16v-16h-32v-32h96V352z"/></g><g transform="matrix(0.12096773833036423 0 0 0.12096773833036423 234 -20)" id="L1_93"><path d="M461.752,240.584c-13.496-95.688-87.648-172.096-182.2-189.016C277.312,31.616,260.536,16,240,16     c-20.528,0-37.296,15.608-39.552,35.544c-8.264,1.472-16.4,3.536-24.448,5.936V0H0v128h16v144c0,123.512,100.488,224,224,224     c107.144,0,196.904-75.624,218.832-176.288C479.544,318.232,496,301.088,496,280C496,259.912,481.064,243.4,461.752,240.584z      M240,32c10.84,0,19.92,7.272,22.888,17.16C255.36,48.392,247.728,48,240,48c-7.696,0-15.336,0.52-22.928,1.288     C220,39.336,229.112,32,240,32z M176,116.408c14.48-2.872,30.528-4.408,48-4.408c66.848,0,136,44.888,136,120     c0,33.064-13.44,63.04-35.144,84.76C331.944,303.384,336,288.168,336,272c0-52.936-43.064-96-96-96     c-33.368,0-62.792,17.136-80,43.048V128h16V116.408z M248,208v-15.592c16.064,1.6,30.736,7.984,42.592,17.688l-34.44,34.44     c-2.528-1.488-5.248-2.64-8.152-3.4V224h-16v17.136c-2.904,0.752-5.632,1.904-8.152,3.4l-34.44-34.44     c11.856-9.704,26.528-16.088,42.592-17.688V208H248z M212.536,255.848c-1.488,2.528-2.64,5.248-3.4,8.152h-48.728     c1.6-16.064,7.976-30.736,17.688-42.592L212.536,255.848z M209.136,280c0.752,2.904,1.904,5.632,3.4,8.152l-34.44,34.44     c-9.704-11.856-16.088-26.528-17.688-42.592H209.136z M223.848,299.464c2.528,1.488,5.248,2.64,8.152,3.4v48.728     c-16.064-1.6-30.736-7.984-42.592-17.688L223.848,299.464z M224,272c0-8.824,7.176-16,16-16c8.824,0,16,7.176,16,16     c0,8.824-7.176,16-16,16C231.176,288,224,280.824,224,272z M248,302.864c2.904-0.752,5.632-1.904,8.152-3.4l34.44,34.44     c-11.816,9.672-26.424,16.048-42.424,17.68c-0.056,0.008-0.112,0.008-0.168,0.008V302.864z M267.464,288.152     c1.488-2.528,2.64-5.248,3.4-8.152h48.728c-1.6,16.064-7.976,30.736-17.688,42.592L267.464,288.152z M270.864,264     c-0.752-2.904-1.904-5.632-3.4-8.152l34.44-34.44c9.704,11.856,16.088,26.528,17.688,42.592H270.864z M16,48h112V32H16V16h144v16     h-16v16h16v64H16V48z M240,480c-114.688,0-208-93.312-208-208V128h112v144c0,52.936,43.064,96,96,96     c3.312,0,6.576-0.168,9.8-0.496C320.216,362.448,376,303.68,376,232c0-85.128-77.288-136-152-136c-17.28,0-33.32,1.424-48,4.104     V74.2c20.624-6.664,42.096-10.2,64-10.2c114.688,0,208,93.312,208,208S354.688,480,240,480z M461.776,303.216     C463.208,293.008,464,282.6,464,272c0-4.944-0.216-9.832-0.536-14.696C473.032,260.464,480,269.384,480,280     C480,291.232,472.216,300.616,461.776,303.216z"/><rect x="48px" y="144px" width="16px" height="16px"/><rect x="96px" y="248px" width="16px" height="16px"/><rect x="136px" y="392px" width="16px" height="16px"/><rect x="280px" y="376px" width="16px" height="16px"/><rect x="224px" y="440px" width="16px" height="16px"/><rect x="392px" y="312px" width="16px" height="16px"/></g></defs><g fi:class="KUsePattern" opacity="0.14"><pattern id="pattern_L1_85" width="350" height="350" patternUnits="userSpaceOnUse"><use xlink:href="#L1_85" x="-350" y="-350"/><use xlink:href="#L1_85" x="0" y="-350"/><use xlink:href="#L1_85" x="350" y="-350"/><use xlink:href="#L1_85" x="-350" y="0"/><use xlink:href="#L1_85" x="0" y="0"/><use xlink:href="#L1_85" x="350" y="0"/><use xlink:href="#L1_85" x="-350" y="350"/><use xlink:href="#L1_85" x="0" y="350"/><use xlink:href="#L1_85" x="350" y="350"/></pattern><rect x="0" y="0" width="100%" height="100%" fill="url(#pattern_L1_85)"/></g><g fi:class="KUsePattern" opacity="0.13"><pattern id="pattern_L1_86" width="350" height="350" patternUnits="userSpaceOnUse"><use xlink:href="#L1_86" x="-350" y="-350"/><use xlink:href="#L1_86" x="0" y="-350"/><use xlink:href="#L1_86" x="350" y="-350"/><use xlink:href="#L1_86" x="-350" y="0"/><use xlink:href="#L1_86" x="0" y="0"/><use xlink:href="#L1_86" x="350" y="0"/><use xlink:href="#L1_86" x="-350" y="350"/><use xlink:href="#L1_86" x="0" y="350"/><use xlink:href="#L1_86" x="350" y="350"/></pattern><rect x="0" y="0" width="100%" height="100%" fill="url(#pattern_L1_86)"/></g><g fi:class="KUsePattern" opacity="0.18"><pattern id="pattern_L1_87" width="350" height="350" patternUnits="userSpaceOnUse"><use xlink:href="#L1_87" x="-350" y="-350"/><use xlink:href="#L1_87" x="0" y="-350"/><use xlink:href="#L1_87" x="350" y="-350"/><use xlink:href="#L1_87" x="-350" y="0"/><use xlink:href="#L1_87" x="0" y="0"/><use xlink:href="#L1_87" x="350" y="0"/><use xlink:href="#L1_87" x="-350" y="350"/><use xlink:href="#L1_87" x="0" y="350"/><use xlink:href="#L1_87" x="350" y="350"/></pattern><rect x="0" y="0" width="100%" height="100%" fill="url(#pattern_L1_87)"/></g><g fi:class="KUsePattern" opacity="0.12"><pattern id="pattern_L1_88" width="350" height="350" patternUnits="userSpaceOnUse"><use xlink:href="#L1_88" x="-350" y="-350"/><use xlink:href="#L1_88" x="0" y="-350"/><use xlink:href="#L1_88" x="350" y="-350"/><use xlink:href="#L1_88" x="-350" y="0"/><use xlink:href="#L1_88" x="0" y="0"/><use xlink:href="#L1_88" x="350" y="0"/><use xlink:href="#L1_88" x="-350" y="350"/><use xlink:href="#L1_88" x="0" y="350"/><use xlink:href="#L1_88" x="350" y="350"/></pattern><rect x="0" y="0" width="100%" height="100%" fill="url(#pattern_L1_88)"/></g><g fi:class="KUsePattern" opacity="0.14"><pattern id="pattern_L1_89" width="350" height="350" patternUnits="userSpaceOnUse"><use xlink:href="#L1_89" x="-350" y="-350"/><use xlink:href="#L1_89" x="0" y="-350"/><use xlink:href="#L1_89" x="350" y="-350"/><use xlink:href="#L1_89" x="-350" y="0"/><use xlink:href="#L1_89" x="0" y="0"/><use xlink:href="#L1_89" x="350" y="0"/><use xlink:href="#L1_89" x="-350" y="350"/><use xlink:href="#L1_89" x="0" y="350"/><use xlink:href="#L1_89" x="350" y="350"/></pattern><rect x="0" y="0" width="100%" height="100%" fill="url(#pattern_L1_89)"/></g><g fi:class="KUsePattern" opacity="0.1"><pattern id="pattern_L1_90" width="350" height="350" patternUnits="userSpaceOnUse"><use xlink:href="#L1_90" x="-350" y="-350"/><use xlink:href="#L1_90" x="0" y="-350"/><use xlink:href="#L1_90" x="350" y="-350"/><use xlink:href="#L1_90" x="-350" y="0"/><use xlink:href="#L1_90" x="0" y="0"/><use xlink:href="#L1_90" x="350" y="0"/><use xlink:href="#L1_90" x="-350" y="350"/><use xlink:href="#L1_90" x="0" y="350"/><use xlink:href="#L1_90" x="350" y="350"/></pattern><rect x="0" y="0" width="100%" height="100%" fill="url(#pattern_L1_90)"/></g><g fi:class="KUsePattern" opacity="0.25"><pattern id="pattern_L1_91" width="350" height="350" patternUnits="userSpaceOnUse"><use xlink:href="#L1_91" x="-350" y="-350"/><use xlink:href="#L1_91" x="0" y="-350"/><use xlink:href="#L1_91" x="350" y="-350"/><use xlink:href="#L1_91" x="-350" y="0"/><use xlink:href="#L1_91" x="0" y="0"/><use xlink:href="#L1_91" x="350" y="0"/><use xlink:href="#L1_91" x="-350" y="350"/><use xlink:href="#L1_91" x="0" y="350"/><use xlink:href="#L1_91" x="350" y="350"/></pattern><rect x="0" y="0" width="100%" height="100%" fill="url(#pattern_L1_91)"/></g><g fi:class="KUsePattern" opacity="0.15"><pattern id="pattern_L1_92" width="350" height="350" patternUnits="userSpaceOnUse"><use xlink:href="#L1_92" x="-350" y="-350"/><use xlink:href="#L1_92" x="0" y="-350"/><use xlink:href="#L1_92" x="350" y="-350"/><use xlink:href="#L1_92" x="-350" y="0"/><use xlink:href="#L1_92" x="0" y="0"/><use xlink:href="#L1_92" x="350" y="0"/><use xlink:href="#L1_92" x="-350" y="350"/><use xlink:href="#L1_92" x="0" y="350"/><use xlink:href="#L1_92" x="350" y="350"/></pattern><rect x="0" y="0" width="100%" height="100%" fill="url(#pattern_L1_92)"/></g><g fi:class="KUsePattern" opacity="0.15"><pattern id="pattern_L1_93" width="350" height="350" patternUnits="userSpaceOnUse"><use xlink:href="#L1_93" x="-350" y="-350"/><use xlink:href="#L1_93" x="0" y="-350"/><use xlink:href="#L1_93" x="350" y="-350"/><use xlink:href="#L1_93" x="-350" y="0"/><use xlink:href="#L1_93" x="0" y="0"/><use xlink:href="#L1_93" x="350" y="0"/><use xlink:href="#L1_93" x="-350" y="350"/><use xlink:href="#L1_93" x="0" y="350"/><use xlink:href="#L1_93" x="350" y="350"/></pattern><rect x="0" y="0" width="100%" height="100%" fill="url(#pattern_L1_93)"/></g></svg>