<?xml version="1.0" standalone="no"?>
<!DOCTYPE svg PUBLIC "-//W3C//DTD SVG 20010904//EN"
 "http://www.w3.org/TR/2001/REC-SVG-20010904/DTD/svg10.dtd">
<svg version="1.0" xmlns="http://www.w3.org/2000/svg"
 width="300.000000pt" height="300.000000pt" viewBox="0 0 300.000000 300.000000"
 preserveAspectRatio="xMidYMid meet">
<metadata>
Created by potrace 1.11, written by Peter Selinger 2001-2013
</metadata>
<g transform="translate(0.000000,300.000000) scale(0.100000,-0.100000)"
fill="#000000" stroke="none">
<path d="M1346 2990 c-592 -68 -1105 -508 -1266 -1084 -53 -191 -68 -465 -35
-651 109 -623 564 -1093 1189 -1227 147 -31 426 -31 576 1 515 110 917 447
1108 931 95 240 92 390 -10 487 -71 68 -67 68 -535 71 -233 2 -423 4 -423 6 0
2 40 74 90 161 49 87 97 178 106 202 l17 43 128 0 c71 0 129 -2 129 -5 0 -3
-11 -27 -25 -53 -45 -85 -27 -180 44 -228 35 -23 41 -24 224 -24 153 0 194 3
220 16 99 51 121 125 78 275 -152 538 -596 947 -1151 1059 -120 25 -341 34
-464 20z m390 -155 c512 -89 917 -439 1073 -928 36 -114 37 -123 12 -137 -25
-13 -298 -13 -306 -1 -3 6 19 54 50 108 30 54 55 106 55 115 0 9 -11 30 -24
45 l-24 28 -363 3 c-200 1 -361 1 -359 -1 3 -3 37 -17 75 -32 89 -35 98 -42
91 -76 -3 -15 -59 -123 -126 -240 -105 -188 -120 -219 -120 -260 0 -34 5 -51
21 -65 20 -18 47 -19 503 -24 264 -3 489 -9 499 -14 55 -26 60 -123 16 -263
-149 -467 -527 -811 -1012 -918 -114 -26 -364 -31 -488 -11 -374 62 -706 277
-914 591 -71 107 -109 186 -150 308 -57 170 -70 252 -70 437 0 186 13 266 71
440 159 480 598 837 1109 903 81 11 300 6 381 -8z"/>
<path d="M1090 2643 c0 -4 36 -21 80 -38 83 -30 97 -45 84 -87 -3 -13 -59
-115 -124 -228 -65 -113 -121 -219 -124 -237 -11 -47 15 -90 62 -103 23 -8
105 -10 224 -8 l186 3 38 31 c28 22 77 98 181 280 78 137 147 261 154 276 15
37 4 74 -28 95 -24 16 -63 18 -380 21 -194 2 -353 0 -353 -5z m570 -150 c0 -5
-51 -96 -113 -203 l-112 -195 -122 -3 c-68 -1 -123 0 -123 3 0 4 42 79 94 168
51 89 99 179 107 200 l13 37 128 0 c70 0 128 -3 128 -7z"/>
<path d="M580 1708 c14 -7 53 -24 88 -39 54 -24 62 -31 62 -55 0 -16 -59 -133
-145 -288 -159 -287 -168 -314 -120 -361 24 -25 25 -25 230 -25 228 0 244 3
289 63 50 65 346 611 346 637 0 16 -11 37 -26 51 l-26 24 -361 2 c-277 2 -356
-1 -337 -9z m546 -154 c-10 -26 -227 -416 -248 -446 -19 -28 -20 -28 -139 -28
-65 0 -119 2 -119 4 0 2 54 100 119 218 66 118 123 226 126 241 l7 27 130 0
c115 0 129 -2 124 -16z"/>
<path d="M1327 1143 c-4 -3 30 -21 75 -38 73 -28 83 -35 86 -59 3 -20 -35 -97
-142 -291 -121 -217 -146 -269 -146 -303 0 -81 32 -92 261 -92 196 0 224 6
271 56 38 40 358 621 358 649 0 37 -31 66 -80 76 -53 10 -674 12 -683 2z m563
-150 c0 -7 -113 -216 -203 -375 l-61 -108 -123 0 -124 0 12 23 c6 12 60 110
120 217 59 107 111 207 114 223 l7 27 129 0 c71 0 129 -3 129 -7z"/>
</g>
</svg>
